<svg width="296" height="40" viewBox="0 0 296 40" fill="none" xmlns="http://www.w3.org/2000/svg">
<path d="M16.52 4.91999C20.808 4.91999 24.504 6.27999 27.608 8.99999L23.624 13.176C22.44 12.28 21.336 11.64 20.312 11.256C19.32 10.84 18.168 10.632 16.856 10.632C14.392 10.632 12.424 11.608 10.952 13.56C9.47999 15.48 8.74399 18.408 8.74399 22.344C8.74399 26.6 9.30398 29.624 10.424 31.416C11.544 33.176 13.288 34.056 15.656 34.056C17.32 34.056 18.824 33.688 20.168 32.952V25.416H15.848L15.08 19.848H27.8V36.312C26.072 37.432 24.168 38.296 22.088 38.904C20.008 39.512 17.928 39.816 15.848 39.816C10.792 39.816 6.98398 38.344 4.42398 35.4C1.86398 32.424 0.583984 28.072 0.583984 22.344C0.583984 18.696 1.27198 15.56 2.64798 12.936C4.05598 10.312 5.95998 8.32799 8.35998 6.98399C10.792 5.60799 13.512 4.91999 16.52 4.91999Z" fill="#141414"/>
<path d="M53.1695 31.608C53.1695 32.568 53.2975 33.272 53.5535 33.72C53.8415 34.168 54.2895 34.504 54.8975 34.728L53.3135 39.672C51.7455 39.544 50.4655 39.208 49.4735 38.664C48.4815 38.088 47.7135 37.192 47.1695 35.976C45.5055 38.536 42.9455 39.816 39.4895 39.816C36.9615 39.816 34.9455 39.08 33.4415 37.608C31.9375 36.136 31.1855 34.216 31.1855 31.848C31.1855 29.064 32.2095 26.936 34.2575 25.464C36.3055 23.992 39.2655 23.256 43.1375 23.256H45.7295V22.152C45.7295 20.648 45.4095 19.624 44.7695 19.08C44.1295 18.504 43.0095 18.216 41.4095 18.216C40.5775 18.216 39.5695 18.344 38.3855 18.6C37.2015 18.824 35.9855 19.144 34.7375 19.56L33.0095 14.568C34.6095 13.96 36.2415 13.496 37.9055 13.176C39.6015 12.856 41.1695 12.696 42.6095 12.696C46.2575 12.696 48.9295 13.448 50.6255 14.952C52.3215 16.456 53.1695 18.712 53.1695 21.72V31.608ZM41.6975 34.392C43.4255 34.392 44.7695 33.576 45.7295 31.944V27.432H43.8575C42.1295 27.432 40.8335 27.736 39.9695 28.344C39.1375 28.952 38.7215 29.896 38.7215 31.176C38.7215 32.2 38.9775 33 39.4895 33.576C40.0335 34.12 40.7695 34.392 41.6975 34.392Z" fill="#141414"/>
<path d="M73.6584 12.696C76.6984 12.696 79.0344 13.896 80.6664 16.296C82.2984 18.664 83.1144 21.992 83.1144 26.28C83.1144 28.904 82.6984 31.24 81.8664 33.288C81.0664 35.336 79.8984 36.936 78.3624 38.088C76.8584 39.24 75.0664 39.816 72.9864 39.816C71.6104 39.816 70.3464 39.528 69.1944 38.952C68.0744 38.376 67.1144 37.576 66.3144 36.552L65.9304 39H59.2104V3.38399L66.7944 2.56799V16.104C67.5624 15.048 68.5384 14.216 69.7224 13.608C70.9384 13 72.2504 12.696 73.6584 12.696ZM70.7784 34.296C73.7544 34.296 75.2424 31.624 75.2424 26.28C75.2424 23.24 74.8904 21.144 74.1864 19.992C73.4824 18.84 72.4584 18.264 71.1144 18.264C69.4184 18.264 67.9784 19.256 66.7944 21.24V31.848C67.2744 32.616 67.8504 33.224 68.5224 33.672C69.2264 34.088 69.9784 34.296 70.7784 34.296Z" fill="#141414"/>
<path d="M101.675 12.792C102.603 12.792 103.451 12.904 104.219 13.128L103.019 20.472C102.059 20.248 101.291 20.136 100.715 20.136C99.211 20.136 98.059 20.664 97.259 21.72C96.491 22.744 95.883 24.296 95.435 26.376V39H87.851V13.512H94.475L95.099 18.456C95.675 16.696 96.539 15.32 97.691 14.328C98.875 13.304 100.203 12.792 101.675 12.792Z" fill="#141414"/>
<path d="M114.701 13.512V39H107.117V13.512H114.701ZM110.861 0.071991C112.173 0.071991 113.245 0.487991 114.077 1.31999C114.941 2.11999 115.373 3.14399 115.373 4.39199C115.373 5.63999 114.941 6.67999 114.077 7.51199C113.245 8.31199 112.173 8.71199 110.861 8.71199C109.549 8.71199 108.477 8.31199 107.645 7.51199C106.813 6.67999 106.397 5.63999 106.397 4.39199C106.397 3.14399 106.813 2.11999 107.645 1.31999C108.477 0.487991 109.549 0.071991 110.861 0.071991Z" fill="#141414"/>
<path d="M142.887 25.752C142.887 26.808 142.839 27.72 142.743 28.488H126.951C127.207 30.632 127.815 32.136 128.775 33C129.735 33.864 131.063 34.296 132.759 34.296C133.783 34.296 134.775 34.12 135.735 33.768C136.695 33.384 137.735 32.808 138.855 32.04L141.975 36.264C138.999 38.632 135.687 39.816 132.039 39.816C127.911 39.816 124.743 38.6 122.535 36.168C120.327 33.736 119.223 30.472 119.223 26.376C119.223 23.784 119.687 21.464 120.615 19.416C121.543 17.336 122.903 15.704 124.695 14.52C126.487 13.304 128.631 12.696 131.127 12.696C134.807 12.696 137.687 13.848 139.767 16.152C141.847 18.456 142.887 21.656 142.887 25.752ZM135.447 23.592C135.383 19.688 134.007 17.736 131.319 17.736C130.007 17.736 128.983 18.216 128.247 19.176C127.543 20.136 127.111 21.72 126.951 23.928H135.447V23.592Z" fill="#141414"/>
<path d="M153.916 39.816C151.708 39.816 149.98 39.192 148.732 37.944C147.516 36.664 146.908 34.856 146.908 32.52V3.38399L154.492 2.56799V32.232C154.492 33.288 154.924 33.816 155.788 33.816C156.236 33.816 156.652 33.736 157.036 33.576L158.524 38.952C157.148 39.528 155.612 39.816 153.916 39.816Z" fill="#141414"/>
<path d="M182.196 5.73599C187.412 5.73599 191.588 6.91999 194.724 9.28799C197.892 11.624 199.476 15.928 199.476 22.2C199.476 28.376 197.94 32.728 194.868 35.256C191.796 37.752 187.812 39 182.916 39H172.932V5.73599H182.196ZM180.804 11.448V33.288H183.396C185.988 33.288 187.956 32.488 189.3 30.888C190.644 29.256 191.316 26.36 191.316 22.2C191.316 19.352 190.98 17.144 190.308 15.576C189.636 14.008 188.724 12.936 187.572 12.36C186.42 11.752 184.996 11.448 183.3 11.448H180.804Z" fill="#141414"/>
<path d="M211.638 13.512V39H204.054V13.512H211.638ZM207.798 0.071991C209.11 0.071991 210.182 0.487991 211.014 1.31999C211.878 2.11999 212.31 3.14399 212.31 4.39199C212.31 5.63999 211.878 6.67999 211.014 7.51199C210.182 8.31199 209.11 8.71199 207.798 8.71199C206.486 8.71199 205.414 8.31199 204.582 7.51199C203.75 6.67999 203.334 5.63999 203.334 4.39199C203.334 3.14399 203.75 2.11999 204.582 1.31999C205.414 0.487991 206.486 0.071991 207.798 0.071991Z" fill="#141414"/>
<path d="M233.585 37.8C232.657 38.44 231.569 38.936 230.321 39.288C229.105 39.64 227.889 39.816 226.673 39.816C221.105 39.784 218.321 36.712 218.321 30.6V18.792H214.721V13.512H218.321V7.99199L225.905 7.12799V13.512H231.761L230.945 18.792H225.905V30.504C225.905 31.688 226.097 32.536 226.481 33.048C226.865 33.56 227.473 33.816 228.305 33.816C229.169 33.816 230.081 33.544 231.041 33L233.585 37.8Z" fill="#141414"/>
<path d="M254.069 13.512V18.84L242.549 33.24H254.309L253.637 39H233.765V33.624L245.333 19.224H234.773V13.512H254.069Z" fill="#141414"/>
<path d="M279.95 25.752C279.95 26.808 279.902 27.72 279.806 28.488H264.014C264.27 30.632 264.878 32.136 265.838 33C266.798 33.864 268.126 34.296 269.822 34.296C270.846 34.296 271.838 34.12 272.798 33.768C273.758 33.384 274.798 32.808 275.918 32.04L279.038 36.264C276.062 38.632 272.75 39.816 269.102 39.816C264.974 39.816 261.806 38.6 259.598 36.168C257.39 33.736 256.286 30.472 256.286 26.376C256.286 23.784 256.75 21.464 257.678 19.416C258.606 17.336 259.966 15.704 261.758 14.52C263.55 13.304 265.694 12.696 268.19 12.696C271.87 12.696 274.75 13.848 276.83 16.152C278.91 18.456 279.95 21.656 279.95 25.752ZM272.51 23.592C272.446 19.688 271.07 17.736 268.382 17.736C267.07 17.736 266.046 18.216 265.31 19.176C264.606 20.136 264.174 21.72 264.014 23.928H272.51V23.592Z" fill="#141414"/>
<path d="M290.978 39.816C288.77 39.816 287.042 39.192 285.794 37.944C284.578 36.664 283.97 34.856 283.97 32.52V3.38399L291.554 2.56799V32.232C291.554 33.288 291.986 33.816 292.85 33.816C293.298 33.816 293.714 33.736 294.098 33.576L295.586 38.952C294.21 39.528 292.674 39.816 290.978 39.816Z" fill="#141414"/>
</svg>
